M48
; DRILL file {KiCad (6.0.2)} date Sun Mar  6 23:14:38 2022
; FORMAT={-:-/ absolute / inch / decimal}
; #@! TF.CreationDate,2022-03-06T23:14:38-03:00
; #@! TF.GenerationSoftware,Kicad,Pcbnew,(6.0.2)
; #@! TF.FileFunction,Plated,1,2,PTH
FMAT,2
INCH
; #@! TA.AperFunction,Plated,PTH,ComponentDrill
T1C0.0276
; #@! TA.AperFunction,Plated,PTH,ComponentDrill
T2C0.0390
; #@! TA.AperFunction,Plated,PTH,ComponentDrill
T3C0.0430
; #@! TA.AperFunction,Plated,PTH,ComponentDrill
T4C0.0433
; #@! TA.AperFunction,Plated,PTH,ComponentDrill
T5C0.0472
%
G90
G05
T1
X9.1588Y-2.3328
X9.2588Y-2.3328
X9.3588Y-2.3328
X9.4588Y-2.3328
X9.5588Y-2.3328
T2
X1.6713Y-6.6315
X1.6713Y-6.9315
X1.8588Y-2.694
X1.8588Y-2.994
X1.8588Y-4.7565
X1.8588Y-5.0565
X2.4213Y-5.8815
X2.4213Y-6.1815
X2.4213Y-6.6315
X2.4213Y-6.9315
X2.5487Y-3.6315
X2.5487Y-3.9315
X2.6088Y-2.694
X2.6088Y-2.994
X2.7963Y-5.1315
X2.7963Y-5.4315
X2.9838Y-4.3815
X2.9838Y-4.6815
X3.1713Y-5.8815
X3.1713Y-6.1815
X3.1713Y-6.6315
X3.1713Y-6.9315
X3.3588Y-2.694
X3.3588Y-2.994
X3.3588Y-3.6315
X3.3588Y-3.9315
X3.5463Y-5.1315
X3.5463Y-5.4315
X3.7338Y-4.3815
X3.7338Y-4.6815
X3.9213Y-5.8815
X3.9213Y-6.1815
X4.1088Y-2.694
X4.1088Y-2.994
X4.1088Y-3.6315
X4.1088Y-3.9315
X4.2963Y-5.1315
X4.2963Y-5.4315
X4.2963Y-6.6315
X4.2963Y-6.9315
X4.4838Y-4.3815
X4.4838Y-4.6815
X4.6713Y-5.8815
X4.6713Y-6.1815
X4.8588Y-3.6315
X4.8588Y-3.9315
X5.0463Y-5.1315
X5.0463Y-5.4315
X5.2338Y-2.694
X5.2338Y-2.994
X5.2338Y-4.3815
X5.2338Y-4.6815
X5.2338Y-6.6315
X5.2338Y-6.9315
X5.4213Y-5.8815
X5.4213Y-6.1815
X5.6088Y-3.6315
X5.6088Y-3.9315
X5.7963Y-5.1315
X5.7963Y-5.4315
X5.9838Y-2.694
X5.9838Y-2.994
X5.9838Y-4.3815
X5.9838Y-4.6815
X6.1713Y-5.8815
X6.1713Y-6.1815
X6.3588Y-3.6315
X6.3588Y-3.9315
X6.44Y-1.6594
X6.5463Y-5.1315
X6.5463Y-5.4315
X6.64Y-1.8097
X6.64Y-1.9097
X6.7338Y-2.694
X6.7338Y-2.994
X6.7338Y-4.3815
X6.7338Y-4.6815
X6.84Y-1.6594
X6.8612Y-6.6315
X6.8612Y-6.9315
X6.9213Y-5.8815
X6.9213Y-6.1815
X7.1088Y-3.6315
X7.1088Y-3.9315
X7.2963Y-5.1315
X7.2963Y-5.4315
X7.4838Y-2.694
X7.4838Y-2.994
X7.4838Y-4.3815
X7.4838Y-4.6815
X7.6712Y-6.6315
X7.6712Y-6.9315
X7.6713Y-5.8815
X7.6713Y-6.1815
X7.8588Y-3.6315
X7.8588Y-3.9315
X8.0463Y-5.1315
X8.0463Y-5.4315
X8.2338Y-4.3815
X8.2338Y-4.6815
X8.4213Y-5.8815
X8.4213Y-6.1815
X8.6088Y-2.694
X8.6088Y-2.994
X8.6088Y-3.6315
X8.6088Y-3.9315
X8.7963Y-5.1315
X8.7963Y-5.4315
X8.9838Y-4.3815
X8.9838Y-4.6815
X9.1112Y-6.6315
X9.1112Y-6.9315
X9.1713Y-5.8815
X9.1713Y-6.1815
X9.3588Y-2.694
X9.3588Y-2.994
X9.3588Y-3.6315
X9.3588Y-3.9315
X9.5463Y-5.1315
X9.5463Y-5.4315
X9.7338Y-4.3815
X9.7338Y-4.6815
X9.9213Y-5.8815
X9.9213Y-6.1815
X9.9213Y-6.6315
X9.9213Y-6.9315
X10.1088Y-2.694
X10.1088Y-2.994
X10.1088Y-3.6315
X10.1088Y-3.9315
X10.2963Y-5.1315
X10.2963Y-5.4315
X10.4838Y-4.3815
X10.4838Y-4.6815
X10.6713Y-5.8815
X10.6713Y-6.1815
X10.6713Y-6.6315
X10.6713Y-6.9315
X10.8588Y-2.694
X10.8588Y-2.994
X10.8588Y-3.6315
X10.8588Y-3.9315
X11.0463Y-5.1315
X11.0463Y-5.4315
X11.2338Y-4.3815
X11.2338Y-4.6815
X11.4213Y-5.8815
X11.4213Y-6.1815
X11.4213Y-6.6315
X11.4213Y-6.9315
X11.6088Y-3.6315
X11.6088Y-3.9315
X12.1713Y-4.3815
X12.1713Y-4.6815
X12.1713Y-5.1315
X12.1713Y-5.4315
X12.265Y-5.8815
X12.265Y-6.1815
X12.265Y-6.6315
X12.265Y-6.9315
X12.3588Y-2.694
X12.3588Y-2.994
X12.3588Y-3.6315
X12.3588Y-3.9315
T3
X1.0712Y-1.5597
X1.0712Y-2.1597
X1.1712Y-1.5597
X1.1712Y-2.1597
X1.2712Y-1.5597
X1.2712Y-2.1597
X1.3712Y-1.5597
X1.3712Y-2.1597
X1.4712Y-1.5597
X1.4712Y-2.1597
X1.5712Y-1.5597
X1.5712Y-2.1597
X1.6712Y-1.5597
X1.6712Y-2.1597
X1.7712Y-1.5597
X1.7712Y-2.1597
X1.8712Y-1.5597
X1.8712Y-2.1597
X1.9712Y-1.5597
X1.9712Y-2.1597
X2.0712Y-1.5597
X2.0712Y-2.1597
X2.1712Y-1.5597
X2.1712Y-2.1597
X11.1088Y-1.5597
X11.1088Y-2.1597
X11.2088Y-1.5597
X11.2088Y-2.1597
X11.3088Y-1.5597
X11.3088Y-2.1597
X11.4088Y-1.5597
X11.4088Y-2.1597
X11.5088Y-1.5597
X11.5088Y-2.1597
X11.6088Y-1.5597
X11.6088Y-2.1597
X11.7088Y-1.5597
X11.7088Y-2.1597
X11.8088Y-1.5597
X11.8088Y-2.1597
X11.9088Y-1.5597
X11.9088Y-2.1597
X12.0088Y-1.5597
X12.0088Y-2.1597
X12.1088Y-1.5597
X12.1088Y-2.1597
X12.2088Y-1.5597
X12.2088Y-2.1597
T4
X5.8656Y-1.7416
X5.8656Y-1.9188
X6.1216Y-1.7416
X6.1216Y-1.9188
T5
X1.2963Y-7.0138
X1.4838Y-3.0763
X1.4838Y-5.1388
X1.4931Y-6.9311
X1.6806Y-2.9936
X1.6806Y-5.0561
X1.8588Y-4.0138
X2.0463Y-6.2638
X2.0463Y-7.0138
X2.0556Y-3.9311
X2.2338Y-3.0763
X2.2431Y-6.1811
X2.2431Y-6.9311
X2.4213Y-5.5138
X2.4306Y-2.9936
X2.6088Y-4.7638
X2.6181Y-5.4311
X2.7963Y-6.2638
X2.7963Y-7.0138
X2.8056Y-4.6811
X2.9838Y-3.0763
X2.9838Y-4.0138
X2.9931Y-6.1811
X2.9931Y-6.9311
X3.1713Y-5.5138
X3.1806Y-2.9936
X3.1806Y-3.9311
X3.3588Y-4.7638
X3.3681Y-5.4311
X3.5463Y-6.2638
X3.5556Y-4.6811
X3.7338Y-3.0763
X3.7338Y-4.0138
X3.7431Y-6.1811
X3.9213Y-5.5138
X3.9213Y-7.0138
X3.9306Y-2.9936
X3.9306Y-3.9311
X4.1088Y-4.7638
X4.1181Y-5.4311
X4.1181Y-6.9311
X4.2963Y-6.2638
X4.3056Y-4.6811
X4.4838Y-4.0138
X4.4931Y-6.1811
X4.6713Y-5.5138
X4.6806Y-3.9311
X4.8588Y-3.0763
X4.8588Y-4.7638
X4.8588Y-7.0138
X4.8681Y-5.4311
X5.0463Y-6.2638
X5.0556Y-2.9936
X5.0556Y-4.6811
X5.0556Y-6.9311
X5.2338Y-4.0138
X5.2431Y-6.1811
X5.4213Y-5.5138
X5.4306Y-3.9311
X5.6088Y-3.0763
X5.6088Y-4.7638
X5.6181Y-5.4311
X5.7963Y-6.2638
X5.8056Y-2.9936
X5.8056Y-4.6811
X5.9838Y-4.0138
X5.9931Y-6.1811
X6.1713Y-5.5138
X6.1713Y-7.0138
X6.1806Y-3.9311
X6.3588Y-3.0763
X6.3588Y-4.7638
X6.3681Y-5.4311
X6.3681Y-6.9311
X6.5463Y-6.2638
X6.5556Y-2.9936
X6.5556Y-4.6811
X6.7338Y-4.0138
X6.7431Y-6.1811
X6.9213Y-5.5138
X6.9306Y-3.9311
X7.1088Y-3.0763
X7.1088Y-4.7638
X7.1181Y-5.4311
X7.2962Y-7.0138
X7.2963Y-6.2638
X7.3056Y-2.9936
X7.3056Y-4.6811
X7.4838Y-4.0138
X7.4931Y-6.9311
X7.4931Y-6.1811
X7.6713Y-5.5138
X7.6806Y-3.9311
X7.8588Y-4.7638
X7.8681Y-5.4311
X8.0463Y-6.2638
X8.0556Y-4.6811
X8.2338Y-3.0763
X8.2338Y-4.0138
X8.2431Y-6.1811
X8.4212Y-7.0138
X8.4213Y-5.5138
X8.4306Y-2.9936
X8.4306Y-3.9311
X8.6088Y-4.7638
X8.6181Y-6.9311
X8.6181Y-5.4311
X8.7963Y-6.2638
X8.8056Y-4.6811
X8.9838Y-3.0763
X8.9838Y-4.0138
X8.9931Y-6.1811
X9.1713Y-5.5138
X9.1806Y-2.9936
X9.1806Y-3.9311
X9.3588Y-4.7638
X9.3681Y-5.4311
X9.5463Y-6.2638
X9.5463Y-7.0138
X9.5556Y-4.6811
X9.7338Y-3.0763
X9.7338Y-4.0138
X9.7431Y-6.1811
X9.7431Y-6.9311
X9.9213Y-5.5138
X9.9306Y-2.9936
X9.9306Y-3.9311
X10.1088Y-4.7638
X10.1181Y-5.4311
X10.2963Y-6.2638
X10.2963Y-7.0138
X10.3056Y-4.6811
X10.4838Y-3.0763
X10.4838Y-4.0138
X10.4931Y-6.1811
X10.4931Y-6.9311
X10.6713Y-5.5138
X10.6806Y-2.9936
X10.6806Y-3.9311
X10.8588Y-4.7638
X10.8681Y-5.4311
X11.0463Y-6.2638
X11.0463Y-7.0138
X11.0556Y-4.6811
X11.2338Y-4.0138
X11.2431Y-6.1811
X11.2431Y-6.9311
X11.4306Y-3.9311
X11.7963Y-4.7638
X11.7963Y-5.5138
X11.89Y-6.2638
X11.89Y-7.0138
X11.9838Y-3.0763
X11.9838Y-4.0138
X11.9931Y-4.6811
X11.9931Y-5.4311
X12.0869Y-6.1811
X12.0869Y-6.9311
X12.1806Y-2.9936
X12.1806Y-3.9311
T0
M30
