M48
; DRILL file {KiCad (6.0.2)} date Sun Mar  6 23:14:38 2022
; FORMAT={-:-/ absolute / inch / decimal}
; #@! TF.CreationDate,2022-03-06T23:14:38-03:00
; #@! TF.GenerationSoftware,Kicad,Pcbnew,(6.0.2)
; #@! TF.FileFunction,NonPlated,1,2,NPTH
FMAT,2
INCH
; #@! TA.AperFunction,NonPlated,NPTH,ComponentDrill
T1C0.0472
; #@! TA.AperFunction,NonPlated,NPTH,ComponentDrill
T2C0.0669
; #@! TA.AperFunction,NonPlated,NPTH,ComponentDrill
T3C0.1000
; #@! TA.AperFunction,NonPlated,NPTH,ComponentDrill
T4C0.1260
; #@! TA.AperFunction,NonPlated,NPTH,ComponentDrill
T5C0.1339
; #@! TA.AperFunction,NonPlated,NPTH,ComponentDrill
T6C0.2756
%
G90
G05
T1
X1.2782Y-4.7411
X1.6532Y-3.6161
X5.9657Y-6.6161
X8.2157Y-6.6161
T2
X1.0797Y-6.7815
X1.2672Y-2.844
X1.2672Y-4.9065
X1.5128Y-6.7815
X1.6422Y-3.7815
X1.7003Y-2.844
X1.7003Y-4.9065
X1.8297Y-6.0315
X1.8297Y-6.7815
X2.0172Y-2.844
X2.0753Y-3.7815
X2.2047Y-5.2815
X2.2628Y-6.0315
X2.2628Y-6.7815
X2.3922Y-4.5315
X2.4503Y-2.844
X2.5797Y-6.0315
X2.5797Y-6.7815
X2.6378Y-5.2815
X2.7672Y-2.844
X2.7672Y-3.7815
X2.8253Y-4.5315
X2.9547Y-5.2815
X3.0128Y-6.0315
X3.0128Y-6.7815
X3.1422Y-4.5315
X3.2003Y-2.844
X3.2003Y-3.7815
X3.3297Y-6.0315
X3.3878Y-5.2815
X3.5172Y-2.844
X3.5172Y-3.7815
X3.5753Y-4.5315
X3.7047Y-5.2815
X3.7047Y-6.7815
X3.7628Y-6.0315
X3.8922Y-4.5315
X3.9503Y-2.844
X3.9503Y-3.7815
X4.0797Y-6.0315
X4.1378Y-5.2815
X4.1378Y-6.7815
X4.2672Y-3.7815
X4.3253Y-4.5315
X4.4547Y-5.2815
X4.5128Y-6.0315
X4.6422Y-2.844
X4.6422Y-4.5315
X4.6422Y-6.7815
X4.7003Y-3.7815
X4.8297Y-6.0315
X4.8878Y-5.2815
X5.0172Y-3.7815
X5.0753Y-2.844
X5.0753Y-4.5315
X5.0753Y-6.7815
X5.2047Y-5.2815
X5.2628Y-6.0315
X5.3922Y-2.844
X5.3922Y-4.5315
X5.4503Y-3.7815
X5.5797Y-6.0315
X5.6378Y-5.2815
X5.7672Y-3.7815
X5.8253Y-2.844
X5.8253Y-4.5315
X5.9547Y-5.2815
X5.9547Y-6.7815
X6.0128Y-6.0315
X6.1422Y-2.844
X6.1422Y-4.5315
X6.2003Y-3.7815
X6.3297Y-6.0315
X6.3878Y-5.2815
X6.3878Y-6.7815
X6.5172Y-3.7815
X6.5753Y-2.844
X6.5753Y-4.5315
X6.7047Y-5.2815
X6.7628Y-6.0315
X6.8922Y-2.844
X6.8922Y-4.5315
X6.9503Y-3.7815
X7.0797Y-6.7815
X7.0797Y-6.0315
X7.1378Y-5.2815
X7.2672Y-3.7815
X7.3253Y-2.844
X7.3253Y-4.5315
X7.4547Y-5.2815
X7.5128Y-6.7815
X7.5128Y-6.0315
X7.6422Y-4.5315
X7.7003Y-3.7815
X7.8297Y-6.0315
X7.8878Y-5.2815
X8.0172Y-2.844
X8.0172Y-3.7815
X8.0753Y-4.5315
X8.2047Y-6.7815
X8.2047Y-5.2815
X8.2628Y-6.0315
X8.3922Y-4.5315
X8.4503Y-2.844
X8.4503Y-3.7815
X8.5797Y-6.0315
X8.6378Y-6.7815
X8.6378Y-5.2815
X8.7672Y-2.844
X8.7672Y-3.7815
X8.8253Y-4.5315
X8.9547Y-5.2815
X9.0128Y-6.0315
X9.1422Y-4.5315
X9.2003Y-2.844
X9.2003Y-3.7815
X9.3297Y-6.0315
X9.3297Y-6.7815
X9.3878Y-5.2815
X9.5172Y-2.844
X9.5172Y-3.7815
X9.5753Y-4.5315
X9.7047Y-5.2815
X9.7628Y-6.0315
X9.7628Y-6.7815
X9.8922Y-4.5315
X9.9503Y-2.844
X9.9503Y-3.7815
X10.0797Y-6.0315
X10.0797Y-6.7815
X10.1378Y-5.2815
X10.2672Y-2.844
X10.2672Y-3.7815
X10.3253Y-4.5315
X10.4547Y-5.2815
X10.5128Y-6.0315
X10.5128Y-6.7815
X10.6422Y-4.5315
X10.7003Y-2.844
X10.7003Y-3.7815
X10.8297Y-6.0315
X10.8297Y-6.7815
X10.8878Y-5.2815
X11.0172Y-3.7815
X11.0753Y-4.5315
X11.2628Y-6.0315
X11.2628Y-6.7815
X11.4503Y-3.7815
X11.5797Y-4.5315
X11.5797Y-5.2815
X11.6735Y-6.0315
X11.6735Y-6.7815
X11.7672Y-2.844
X11.7672Y-3.7815
X12.0128Y-4.5315
X12.0128Y-5.2815
X12.1065Y-6.0315
X12.1065Y-6.7815
X12.2003Y-2.844
X12.2003Y-3.7815
T3
X8.8588Y-1.8597
X9.8588Y-1.8597
T4
X1.4838Y-6.0315
X4.2963Y-2.844
X11.2338Y-2.844
X11.2338Y-5.2815
T5
X1.2963Y-6.7815
X1.4838Y-2.844
X1.4838Y-4.9065
X1.8588Y-3.7815
X2.0463Y-6.0315
X2.0463Y-6.7815
X2.2338Y-2.844
X2.4213Y-5.2815
X2.6088Y-4.5315
X2.7963Y-6.0315
X2.7963Y-6.7815
X2.9838Y-2.844
X2.9838Y-3.7815
X3.1713Y-5.2815
X3.3588Y-4.5315
X3.5463Y-6.0315
X3.7338Y-2.844
X3.7338Y-3.7815
X3.9213Y-5.2815
X3.9213Y-6.7815
X4.1088Y-4.5315
X4.2963Y-6.0315
X4.4838Y-3.7815
X4.6713Y-5.2815
X4.8588Y-2.844
X4.8588Y-4.5315
X4.8588Y-6.7815
X5.0463Y-6.0315
X5.2338Y-3.7815
X5.4213Y-5.2815
X5.6088Y-2.844
X5.6088Y-4.5315
X5.7963Y-6.0315
X5.9838Y-3.7815
X6.1713Y-5.2815
X6.1713Y-6.7815
X6.3588Y-2.844
X6.3588Y-4.5315
X6.5463Y-6.0315
X6.7338Y-3.7815
X6.9213Y-5.2815
X7.1088Y-2.844
X7.1088Y-4.5315
X7.2962Y-6.7815
X7.2963Y-6.0315
X7.4838Y-3.7815
X7.6713Y-5.2815
X7.8588Y-4.5315
X8.0463Y-6.0315
X8.2338Y-2.844
X8.2338Y-3.7815
X8.4212Y-6.7815
X8.4213Y-5.2815
X8.6088Y-4.5315
X8.7963Y-6.0315
X8.9838Y-2.844
X8.9838Y-3.7815
X9.1713Y-5.2815
X9.3588Y-4.5315
X9.5463Y-6.0315
X9.5463Y-6.7815
X9.7338Y-2.844
X9.7338Y-3.7815
X9.9213Y-5.2815
X10.1088Y-4.5315
X10.2963Y-6.0315
X10.2963Y-6.7815
X10.4838Y-2.844
X10.4838Y-3.7815
X10.6713Y-5.2815
X10.8588Y-4.5315
X11.0463Y-6.0315
X11.0463Y-6.7815
X11.2338Y-3.7815
X11.7963Y-4.5315
X11.7963Y-5.2815
X11.89Y-6.0315
X11.89Y-6.7815
X11.9838Y-2.844
X11.9838Y-3.7815
T6
X9.3588Y-1.8597
T0
M30
