%TF.GenerationSoftware,KiCad,Pcbnew,(6.0.2)*%
%TF.CreationDate,2022-03-06T23:14:38-03:00*%
%TF.ProjectId,BitterDev,42697474-6572-4446-9576-2e6b69636164,V1.1.0*%
%TF.SameCoordinates,Original*%
%TF.FileFunction,Profile,NP*%
%FSLAX46Y46*%
G04 Gerber Fmt 4.6, Leading zero omitted, Abs format (unit mm)*
G04 Created by KiCad (PCBNEW (6.0.2)) date 2022-03-06 23:14:38*
%MOMM*%
%LPD*%
G01*
G04 APERTURE LIST*
%TA.AperFunction,Profile*%
%ADD10C,0.200000*%
%TD*%
%TA.AperFunction,Profile*%
%ADD11C,0.120000*%
%TD*%
G04 APERTURE END LIST*
D10*
X312912472Y-185774999D02*
G75*
G03*
X317912472Y-180774999I0J5000000D01*
G01*
X317912472Y-37712499D02*
G75*
G03*
X312912472Y-32712499I-5000000J0D01*
G01*
X312912472Y-185774999D02*
X24399972Y-185774999D01*
X19399972Y-180774999D02*
X19399972Y-37712499D01*
X19399973Y-58712499D02*
G75*
G03*
X19399973Y-58712499I-1J0D01*
G01*
X19399972Y-180774999D02*
G75*
G03*
X24399972Y-185774999I5000000J0D01*
G01*
X317912472Y-37712499D02*
X317912472Y-180774999D01*
X317912473Y-58712499D02*
G75*
G03*
X317912473Y-58712499I-1J0D01*
G01*
X24399972Y-32712499D02*
X312912472Y-32712499D01*
X24399972Y-32712499D02*
G75*
G03*
X19399972Y-37712499I0J-5000000D01*
G01*
D11*
%TO.C,K_40*%
X34487472Y-109974999D02*
X34487472Y-115274999D01*
X28687472Y-134624999D02*
X28687472Y-138624999D01*
X34487472Y-133974999D02*
X39987472Y-133974999D01*
X39987472Y-109974999D02*
X39987472Y-115274999D01*
X32187472Y-134624999D02*
X32187472Y-138624999D01*
X28687472Y-110624999D02*
X32187472Y-110624999D01*
X32187472Y-138624999D02*
X28687472Y-138624999D01*
X28687472Y-110624999D02*
X28687472Y-114624999D01*
X39987472Y-115274999D02*
X34487472Y-115274999D01*
X32187472Y-110624999D02*
X32187472Y-114624999D01*
X34487472Y-109974999D02*
X39987472Y-109974999D01*
X39987472Y-133974999D02*
X39987472Y-139274999D01*
X34487472Y-133974999D02*
X34487472Y-139274999D01*
X39987472Y-139274999D02*
X34487472Y-139274999D01*
X28687472Y-134624999D02*
X32187472Y-134624999D01*
X32187472Y-114624999D02*
X28687472Y-114624999D01*
%TO.C,K_26*%
X33212472Y-90549999D02*
X33212472Y-87049999D01*
X32562472Y-98349999D02*
X32562472Y-92849999D01*
X37862472Y-92849999D02*
X37862472Y-98349999D01*
X37862472Y-98349999D02*
X32562472Y-98349999D01*
X61212472Y-90549999D02*
X57212472Y-90549999D01*
X37212472Y-90549999D02*
X33212472Y-90549999D01*
X57212472Y-90549999D02*
X57212472Y-87049999D01*
X61212472Y-87049999D02*
X61212472Y-90549999D01*
X37212472Y-87049999D02*
X33212472Y-87049999D01*
X61862472Y-92849999D02*
X61862472Y-98349999D01*
X56562472Y-98349999D02*
X56562472Y-92849999D01*
X37862472Y-92849999D02*
X32562472Y-92849999D01*
X37212472Y-87049999D02*
X37212472Y-90549999D01*
X61862472Y-92849999D02*
X56562472Y-92849999D01*
X61862472Y-98349999D02*
X56562472Y-98349999D01*
X61212472Y-87049999D02*
X57212472Y-87049999D01*
%TO.C,K_72*%
X227899472Y-163249999D02*
X223899472Y-163249999D01*
X228549472Y-169049999D02*
X228549472Y-174549999D01*
X204549472Y-169049999D02*
X204549472Y-174549999D01*
X203899472Y-163249999D02*
X203899472Y-166749999D01*
X227899472Y-166749999D02*
X223899472Y-166749999D01*
X228549472Y-174549999D02*
X223249472Y-174549999D01*
X203899472Y-163249999D02*
X199899472Y-163249999D01*
X199249472Y-174549999D02*
X199249472Y-169049999D01*
X204549472Y-169049999D02*
X199249472Y-169049999D01*
X227899472Y-163249999D02*
X227899472Y-166749999D01*
X204549472Y-174549999D02*
X199249472Y-174549999D01*
X228549472Y-169049999D02*
X223249472Y-169049999D01*
X203899472Y-166749999D02*
X199899472Y-166749999D01*
X199899472Y-166749999D02*
X199899472Y-163249999D01*
X223249472Y-174549999D02*
X223249472Y-169049999D01*
X223899472Y-166749999D02*
X223899472Y-163249999D01*
%TO.C,K_74*%
X166749972Y-166749999D02*
X166749972Y-163249999D01*
X146749972Y-163249999D02*
X146749972Y-166749999D01*
X146749972Y-166749999D02*
X142749972Y-166749999D01*
X142099972Y-174549999D02*
X142099972Y-169049999D01*
X146749972Y-163249999D02*
X142749972Y-163249999D01*
X171399972Y-174549999D02*
X166099972Y-174549999D01*
X166099972Y-174549999D02*
X166099972Y-169049999D01*
X170749972Y-163249999D02*
X166749972Y-163249999D01*
X147399972Y-169049999D02*
X142099972Y-169049999D01*
X171399972Y-169049999D02*
X166099972Y-169049999D01*
X147399972Y-174549999D02*
X142099972Y-174549999D01*
X147399972Y-169049999D02*
X147399972Y-174549999D01*
X142749972Y-166749999D02*
X142749972Y-163249999D01*
X170749972Y-163249999D02*
X170749972Y-166749999D01*
X170749972Y-166749999D02*
X166749972Y-166749999D01*
X171399972Y-169049999D02*
X171399972Y-174549999D01*
%TD*%
M02*
