%TF.GenerationSoftware,KiCad,Pcbnew,(6.0.2)*%
%TF.CreationDate,2022-03-06T23:14:37-03:00*%
%TF.ProjectId,BitterDev,42697474-6572-4446-9576-2e6b69636164,V1.1.0*%
%TF.SameCoordinates,Original*%
%TF.FileFunction,Soldermask,Top*%
%TF.FilePolarity,Negative*%
%FSLAX46Y46*%
G04 Gerber Fmt 4.6, Leading zero omitted, Abs format (unit mm)*
G04 Created by KiCad (PCBNEW (6.0.2)) date 2022-03-06 23:14:37*
%MOMM*%
%LPD*%
G01*
G04 APERTURE LIST*
G04 Aperture macros list*
%AMRoundRect*
0 Rectangle with rounded corners*
0 $1 Rounding radius*
0 $2 $3 $4 $5 $6 $7 $8 $9 X,Y pos of 4 corners*
0 Add a 4 corners polygon primitive as box body*
4,1,4,$2,$3,$4,$5,$6,$7,$8,$9,$2,$3,0*
0 Add four circle primitives for the rounded corners*
1,1,$1+$1,$2,$3*
1,1,$1+$1,$4,$5*
1,1,$1+$1,$6,$7*
1,1,$1+$1,$8,$9*
0 Add four rect primitives between the rounded corners*
20,1,$1+$1,$2,$3,$4,$5,0*
20,1,$1+$1,$4,$5,$6,$7,0*
20,1,$1+$1,$6,$7,$8,$9,0*
20,1,$1+$1,$8,$9,$2,$3,0*%
G04 Aperture macros list end*
%ADD10C,1.851000*%
%ADD11RoundRect,0.100000X-0.825500X0.825500X-0.825500X-0.825500X0.825500X-0.825500X0.825500X0.825500X0*%
%ADD12C,3.400000*%
%ADD13C,1.900000*%
%ADD14C,3.600000*%
%ADD15C,2.200000*%
%ADD16O,2.359000X2.105000*%
%ADD17RoundRect,0.100000X1.079500X-0.952500X1.079500X0.952500X-1.079500X0.952500X-1.079500X-0.952500X0*%
%ADD18C,1.400000*%
%ADD19C,2.740000*%
%ADD20C,7.200000*%
G04 APERTURE END LIST*
D10*
%TO.C,D_6*%
X171037472Y-68427499D03*
D11*
X171037472Y-76047499D03*
%TD*%
D10*
%TO.C,D_71*%
X251999972Y-168439999D03*
D11*
X251999972Y-176059999D03*
%TD*%
D10*
%TO.C,D_58*%
X232949972Y-149389999D03*
D11*
X232949972Y-157009999D03*
%TD*%
D10*
%TO.C,D_52*%
X90074972Y-130339999D03*
D11*
X90074972Y-137959999D03*
%TD*%
D10*
%TO.C,D_23*%
X123412472Y-92239999D03*
D11*
X123412472Y-99859999D03*
%TD*%
D10*
%TO.C,D_40*%
X47212472Y-120814999D03*
D11*
X47212472Y-128434999D03*
%TD*%
D10*
%TO.C,D_1*%
X275812472Y-68427499D03*
D11*
X275812472Y-76047499D03*
%TD*%
D10*
%TO.C,D_42*%
X280574972Y-130339999D03*
D11*
X280574972Y-137959999D03*
%TD*%
D10*
%TO.C,D_10*%
X85312472Y-68427499D03*
D11*
X85312472Y-76047499D03*
%TD*%
D10*
%TO.C,D_5*%
X190087472Y-68427499D03*
D11*
X190087472Y-76047499D03*
%TD*%
D10*
%TO.C,D_17*%
X237712472Y-92239999D03*
D11*
X237712472Y-99859999D03*
%TD*%
D10*
%TO.C,D_35*%
X151987472Y-111289999D03*
D11*
X151987472Y-118909999D03*
%TD*%
D10*
%TO.C,D_65*%
X99599972Y-149389999D03*
D11*
X99599972Y-157009999D03*
%TD*%
D10*
%TO.C,D_29*%
X266287472Y-111289999D03*
D11*
X266287472Y-118909999D03*
%TD*%
D10*
%TO.C,D_62*%
X156749972Y-149389999D03*
D11*
X156749972Y-157009999D03*
%TD*%
D10*
%TO.C,D_14*%
X294862472Y-92239999D03*
D11*
X294862472Y-99859999D03*
%TD*%
D10*
%TO.C,D_47*%
X185324972Y-130339999D03*
D11*
X185324972Y-137959999D03*
%TD*%
D10*
%TO.C,D_54*%
X311531222Y-149389999D03*
D11*
X311531222Y-157009999D03*
%TD*%
D10*
%TO.C,D_2*%
X256762472Y-68427499D03*
D11*
X256762472Y-76047499D03*
%TD*%
D10*
%TO.C,D_68*%
X311531222Y-168439999D03*
D11*
X311531222Y-176059999D03*
%TD*%
D10*
%TO.C,D_30*%
X247237472Y-111289999D03*
D11*
X247237472Y-118909999D03*
%TD*%
D10*
%TO.C,D_36*%
X132937472Y-111289999D03*
D11*
X132937472Y-118909999D03*
%TD*%
D10*
%TO.C,D_19*%
X199612472Y-92239999D03*
D11*
X199612472Y-99859999D03*
%TD*%
D10*
%TO.C,D_70*%
X271049972Y-168439999D03*
D11*
X271049972Y-176059999D03*
%TD*%
D10*
%TO.C,D_75*%
X132937472Y-168439999D03*
D11*
X132937472Y-176059999D03*
%TD*%
D10*
%TO.C,D_11*%
X66262472Y-68427499D03*
D11*
X66262472Y-76047499D03*
%TD*%
D10*
%TO.C,D_46*%
X204374972Y-130339999D03*
D11*
X204374972Y-137959999D03*
%TD*%
D12*
%TO.C,H1*%
X109124972Y-72237499D03*
%TD*%
D10*
%TO.C,D_16*%
X256762472Y-92239999D03*
D11*
X256762472Y-99859999D03*
%TD*%
D10*
%TO.C,D_77*%
X80549972Y-168439999D03*
D11*
X80549972Y-176059999D03*
%TD*%
D10*
%TO.C,D_69*%
X290099972Y-168439999D03*
D11*
X290099972Y-176059999D03*
%TD*%
D10*
%TO.C,D_50*%
X128174972Y-130339999D03*
D11*
X128174972Y-137959999D03*
%TD*%
D10*
%TO.C,D_78*%
X61499972Y-168439999D03*
D11*
X61499972Y-176059999D03*
%TD*%
D10*
%TO.C,D_32*%
X209137472Y-111289999D03*
D11*
X209137472Y-118909999D03*
%TD*%
D10*
%TO.C,D_59*%
X213899972Y-149389999D03*
D11*
X213899972Y-157009999D03*
%TD*%
D10*
%TO.C,D_53*%
X71024972Y-130339999D03*
D11*
X71024972Y-137959999D03*
%TD*%
D10*
%TO.C,D_41*%
X309149972Y-130339999D03*
D11*
X309149972Y-137959999D03*
%TD*%
D10*
%TO.C,D_49*%
X147224972Y-130339999D03*
D11*
X147224972Y-137959999D03*
%TD*%
D10*
%TO.C,D_20*%
X180562472Y-92239999D03*
D11*
X180562472Y-99859999D03*
%TD*%
D10*
%TO.C,D_24*%
X104362472Y-92239999D03*
D11*
X104362472Y-99859999D03*
%TD*%
D10*
%TO.C,D_18*%
X218662472Y-92239999D03*
D11*
X218662472Y-99859999D03*
%TD*%
D10*
%TO.C,D_37*%
X113887472Y-111289999D03*
D11*
X113887472Y-118909999D03*
%TD*%
D10*
%TO.C,D_9*%
X104362472Y-68427499D03*
D11*
X104362472Y-76047499D03*
%TD*%
D10*
%TO.C,D_57*%
X251999972Y-149389999D03*
D11*
X251999972Y-157009999D03*
%TD*%
D10*
%TO.C,D_27*%
X309149972Y-111289999D03*
D11*
X309149972Y-118909999D03*
%TD*%
D10*
%TO.C,D_7*%
X151987472Y-68427499D03*
D11*
X151987472Y-76047499D03*
%TD*%
D10*
%TO.C,D_38*%
X94837472Y-111289999D03*
D11*
X94837472Y-118909999D03*
%TD*%
D10*
%TO.C,D_31*%
X228187472Y-111289999D03*
D11*
X228187472Y-118909999D03*
%TD*%
D10*
%TO.C,D_34*%
X171037472Y-111289999D03*
D11*
X171037472Y-118909999D03*
%TD*%
D10*
%TO.C,D_72*%
X231424472Y-168439999D03*
D11*
X231424472Y-176059999D03*
%TD*%
D12*
%TO.C,H4*%
X37687472Y-153199999D03*
%TD*%
D10*
%TO.C,D_43*%
X261524972Y-130339999D03*
D11*
X261524972Y-137959999D03*
%TD*%
D10*
%TO.C,D_12*%
X47212472Y-68427499D03*
D11*
X47212472Y-76047499D03*
%TD*%
D10*
%TO.C,D_63*%
X137699972Y-149389999D03*
D11*
X137699972Y-157009999D03*
%TD*%
D10*
%TO.C,D_21*%
X161512472Y-92239999D03*
D11*
X161512472Y-99859999D03*
%TD*%
D10*
%TO.C,D_48*%
X166274972Y-130339999D03*
D11*
X166274972Y-137959999D03*
%TD*%
D10*
%TO.C,D_61*%
X175799972Y-149389999D03*
D11*
X175799972Y-157009999D03*
%TD*%
D10*
%TO.C,D_26*%
X64737472Y-92239999D03*
D11*
X64737472Y-99859999D03*
%TD*%
D10*
%TO.C,D_0*%
X313912472Y-68427499D03*
D11*
X313912472Y-76047499D03*
%TD*%
D10*
%TO.C,D_74*%
X174274972Y-168439999D03*
D11*
X174274972Y-176059999D03*
%TD*%
D10*
%TO.C,D_64*%
X118649972Y-149389999D03*
D11*
X118649972Y-157009999D03*
%TD*%
D10*
%TO.C,D_56*%
X271049972Y-149389999D03*
D11*
X271049972Y-157009999D03*
%TD*%
D10*
%TO.C,D_67*%
X61499972Y-149389999D03*
D11*
X61499972Y-157009999D03*
%TD*%
D10*
%TO.C,D_44*%
X242474972Y-130339999D03*
D11*
X242474972Y-137959999D03*
%TD*%
D10*
%TO.C,D_60*%
X194849972Y-149389999D03*
D11*
X194849972Y-157009999D03*
%TD*%
D12*
%TO.C,H2*%
X285337472Y-72237499D03*
%TD*%
D10*
%TO.C,D_15*%
X275812472Y-92239999D03*
D11*
X275812472Y-99859999D03*
%TD*%
D10*
%TO.C,D_45*%
X223424972Y-130339999D03*
D11*
X223424972Y-137959999D03*
%TD*%
D10*
%TO.C,D_33*%
X190087472Y-111289999D03*
D11*
X190087472Y-118909999D03*
%TD*%
D10*
%TO.C,D_51*%
X109124972Y-130339999D03*
D11*
X109124972Y-137959999D03*
%TD*%
D10*
%TO.C,D_55*%
X290099972Y-149389999D03*
D11*
X290099972Y-157009999D03*
%TD*%
D12*
%TO.C,H3*%
X285337472Y-134149999D03*
%TD*%
D10*
%TO.C,D_25*%
X85312472Y-92239999D03*
D11*
X85312472Y-99859999D03*
%TD*%
D10*
%TO.C,D_66*%
X80549972Y-149389999D03*
D11*
X80549972Y-157009999D03*
%TD*%
D10*
%TO.C,D_73*%
X194849472Y-168439999D03*
D11*
X194849472Y-176059999D03*
%TD*%
D10*
%TO.C,D_22*%
X142462472Y-92239999D03*
D11*
X142462472Y-99859999D03*
%TD*%
D10*
%TO.C,D_8*%
X132937472Y-68427499D03*
D11*
X132937472Y-76047499D03*
%TD*%
D10*
%TO.C,D_3*%
X237712472Y-68427499D03*
D11*
X237712472Y-76047499D03*
%TD*%
D10*
%TO.C,D_39*%
X75787472Y-111289999D03*
D11*
X75787472Y-118909999D03*
%TD*%
D10*
%TO.C,D_4*%
X218662472Y-68427499D03*
D11*
X218662472Y-76047499D03*
%TD*%
D10*
%TO.C,D_79*%
X42449972Y-168439999D03*
D11*
X42449972Y-176059999D03*
%TD*%
D10*
%TO.C,D_28*%
X285337472Y-111289999D03*
D11*
X285337472Y-118909999D03*
%TD*%
D10*
%TO.C,D_13*%
X313912472Y-92239999D03*
D11*
X313912472Y-99859999D03*
%TD*%
D10*
%TO.C,D_76*%
X109124972Y-168439999D03*
D11*
X109124972Y-176059999D03*
%TD*%
D13*
%TO.C,K_65*%
X84574972Y-153199999D03*
X95574972Y-153199999D03*
D14*
X90074972Y-153199999D03*
D15*
X90074972Y-159099999D03*
X95074972Y-156999999D03*
%TD*%
D14*
%TO.C,K_49*%
X137699972Y-134149999D03*
D13*
X143199972Y-134149999D03*
X132199972Y-134149999D03*
D15*
X137699972Y-140049999D03*
X142699972Y-137949999D03*
%TD*%
D14*
%TO.C,K_0*%
X304387472Y-72237499D03*
D13*
X298887472Y-72237499D03*
X309887472Y-72237499D03*
D15*
X304387472Y-78137499D03*
X309387472Y-76037499D03*
%TD*%
D13*
%TO.C,K_32*%
X194112472Y-115099999D03*
D14*
X199612472Y-115099999D03*
D13*
X205112472Y-115099999D03*
D15*
X199612472Y-120999999D03*
X204612472Y-118899999D03*
%TD*%
D13*
%TO.C,K_1*%
X271787472Y-72237499D03*
X260787472Y-72237499D03*
D14*
X266287472Y-72237499D03*
D15*
X266287472Y-78137499D03*
X271287472Y-76037499D03*
%TD*%
D14*
%TO.C,K_39*%
X66262472Y-115099999D03*
D13*
X60762472Y-115099999D03*
X71762472Y-115099999D03*
D15*
X66262472Y-120999999D03*
X71262472Y-118899999D03*
%TD*%
D13*
%TO.C,K_29*%
X251262472Y-115099999D03*
X262262472Y-115099999D03*
D14*
X256762472Y-115099999D03*
D15*
X256762472Y-120999999D03*
X261762472Y-118899999D03*
%TD*%
D13*
%TO.C,K_35*%
X147962472Y-115099999D03*
X136962472Y-115099999D03*
D14*
X142462472Y-115099999D03*
D15*
X142462472Y-120999999D03*
X147462472Y-118899999D03*
%TD*%
D13*
%TO.C,K_54*%
X296506222Y-153199999D03*
D14*
X302006222Y-153199999D03*
D13*
X307506222Y-153199999D03*
D15*
X302006222Y-159099999D03*
X307006222Y-156999999D03*
%TD*%
D16*
%TO.C,D_LED1*%
X168656222Y-48507499D03*
D17*
X168656222Y-45967499D03*
%TD*%
D14*
%TO.C,K_47*%
X175799972Y-134149999D03*
D13*
X170299972Y-134149999D03*
X181299972Y-134149999D03*
D15*
X175799972Y-140049999D03*
X180799972Y-137949999D03*
%TD*%
D13*
%TO.C,K_45*%
X219399972Y-134149999D03*
D14*
X213899972Y-134149999D03*
D13*
X208399972Y-134149999D03*
D15*
X213899972Y-140049999D03*
X218899972Y-137949999D03*
%TD*%
D13*
%TO.C,K_21*%
X146487472Y-96049999D03*
X157487472Y-96049999D03*
D14*
X151987472Y-96049999D03*
D15*
X151987472Y-101949999D03*
X156987472Y-99849999D03*
%TD*%
D13*
%TO.C,K_4*%
X203637472Y-72237499D03*
X214637472Y-72237499D03*
D14*
X209137472Y-72237499D03*
D15*
X209137472Y-78137499D03*
X214137472Y-76037499D03*
%TD*%
D13*
%TO.C,K_48*%
X162249972Y-134149999D03*
X151249972Y-134149999D03*
D14*
X156749972Y-134149999D03*
D15*
X156749972Y-140049999D03*
X161749972Y-137949999D03*
%TD*%
D14*
%TO.C,K_41*%
X299624972Y-134149999D03*
D13*
X294124972Y-134149999D03*
X305124972Y-134149999D03*
D15*
X299624972Y-140049999D03*
X304624972Y-137949999D03*
%TD*%
D13*
%TO.C,K_2*%
X252737472Y-72237499D03*
D14*
X247237472Y-72237499D03*
D13*
X241737472Y-72237499D03*
D15*
X247237472Y-78137499D03*
X252237472Y-76037499D03*
%TD*%
D14*
%TO.C,K_68*%
X302006222Y-172249999D03*
D13*
X307506222Y-172249999D03*
X296506222Y-172249999D03*
D15*
X302006222Y-178149999D03*
X307006222Y-176049999D03*
%TD*%
D13*
%TO.C,K_10*%
X70287472Y-72237499D03*
X81287472Y-72237499D03*
D14*
X75787472Y-72237499D03*
D15*
X75787472Y-78137499D03*
X80787472Y-76037499D03*
%TD*%
D14*
%TO.C,K_9*%
X94837472Y-72237499D03*
D13*
X100337472Y-72237499D03*
X89337472Y-72237499D03*
D15*
X94837472Y-78137499D03*
X99837472Y-76037499D03*
%TD*%
D13*
%TO.C,K_40*%
X43187472Y-124624999D03*
X32187472Y-124624999D03*
D14*
X37687472Y-124624999D03*
D18*
X32467472Y-120424999D03*
D15*
X37687472Y-130524999D03*
X42687472Y-128424999D03*
%TD*%
D13*
%TO.C,K_25*%
X70287472Y-96049999D03*
X81287472Y-96049999D03*
D14*
X75787472Y-96049999D03*
D15*
X75787472Y-101949999D03*
X80787472Y-99849999D03*
%TD*%
D13*
%TO.C,K_3*%
X233687472Y-72237499D03*
D14*
X228187472Y-72237499D03*
D13*
X222687472Y-72237499D03*
D15*
X228187472Y-78137499D03*
X233187472Y-76037499D03*
%TD*%
D13*
%TO.C,K_79*%
X38424972Y-172249999D03*
X27424972Y-172249999D03*
D14*
X32924972Y-172249999D03*
D15*
X32924972Y-178149999D03*
X37924972Y-176049999D03*
%TD*%
D13*
%TO.C,K_13*%
X298887472Y-96049999D03*
D14*
X304387472Y-96049999D03*
D13*
X309887472Y-96049999D03*
D15*
X304387472Y-101949999D03*
X309387472Y-99849999D03*
%TD*%
D13*
%TO.C,K_51*%
X105099972Y-134149999D03*
X94099972Y-134149999D03*
D14*
X99599972Y-134149999D03*
D15*
X99599972Y-140049999D03*
X104599972Y-137949999D03*
%TD*%
D14*
%TO.C,K_17*%
X228187472Y-96049999D03*
D13*
X233687472Y-96049999D03*
X222687472Y-96049999D03*
D15*
X228187472Y-101949999D03*
X233187472Y-99849999D03*
%TD*%
D14*
%TO.C,K_15*%
X266287472Y-96049999D03*
D13*
X260787472Y-96049999D03*
X271787472Y-96049999D03*
D15*
X266287472Y-101949999D03*
X271287472Y-99849999D03*
%TD*%
D14*
%TO.C,K_44*%
X232949972Y-134149999D03*
D13*
X238449972Y-134149999D03*
X227449972Y-134149999D03*
D15*
X232949972Y-140049999D03*
X237949972Y-137949999D03*
%TD*%
D14*
%TO.C,K_31*%
X218662472Y-115099999D03*
D13*
X213162472Y-115099999D03*
X224162472Y-115099999D03*
D15*
X218662472Y-120999999D03*
X223662472Y-118899999D03*
%TD*%
D14*
%TO.C,K_77*%
X71024972Y-172249999D03*
D13*
X65524972Y-172249999D03*
X76524972Y-172249999D03*
D15*
X71024972Y-178149999D03*
X76024972Y-176049999D03*
%TD*%
D13*
%TO.C,K_75*%
X117912472Y-172249999D03*
X128912472Y-172249999D03*
D14*
X123412472Y-172249999D03*
D15*
X123412472Y-178149999D03*
X128412472Y-176049999D03*
%TD*%
D13*
%TO.C,K_18*%
X203637472Y-96049999D03*
X214637472Y-96049999D03*
D14*
X209137472Y-96049999D03*
D15*
X209137472Y-101949999D03*
X214137472Y-99849999D03*
%TD*%
D14*
%TO.C,K_38*%
X85312472Y-115099999D03*
D13*
X90812472Y-115099999D03*
X79812472Y-115099999D03*
D15*
X85312472Y-120999999D03*
X90312472Y-118899999D03*
%TD*%
D13*
%TO.C,K_7*%
X147962472Y-72237499D03*
D14*
X142462472Y-72237499D03*
D13*
X136962472Y-72237499D03*
D15*
X142462472Y-78137499D03*
X147462472Y-76037499D03*
%TD*%
D13*
%TO.C,K_28*%
X281312472Y-115099999D03*
D14*
X275812472Y-115099999D03*
D13*
X270312472Y-115099999D03*
D15*
X275812472Y-120999999D03*
X280812472Y-118899999D03*
%TD*%
D13*
%TO.C,K_53*%
X55999972Y-134149999D03*
D14*
X61499972Y-134149999D03*
D13*
X66999972Y-134149999D03*
D15*
X61499972Y-140049999D03*
X66499972Y-137949999D03*
%TD*%
D13*
%TO.C,K_34*%
X167012472Y-115099999D03*
D14*
X161512472Y-115099999D03*
D13*
X156012472Y-115099999D03*
D15*
X161512472Y-120999999D03*
X166512472Y-118899999D03*
%TD*%
D14*
%TO.C,K_37*%
X104362472Y-115099999D03*
D13*
X109862472Y-115099999D03*
X98862472Y-115099999D03*
D15*
X104362472Y-120999999D03*
X109362472Y-118899999D03*
%TD*%
D13*
%TO.C,K_56*%
X267024972Y-153199999D03*
X256024972Y-153199999D03*
D14*
X261524972Y-153199999D03*
D15*
X261524972Y-159099999D03*
X266524972Y-156999999D03*
%TD*%
D13*
%TO.C,K_70*%
X267024972Y-172249999D03*
X256024972Y-172249999D03*
D14*
X261524972Y-172249999D03*
D15*
X261524972Y-178149999D03*
X266524972Y-176049999D03*
%TD*%
D13*
%TO.C,K_61*%
X171774972Y-153199999D03*
D14*
X166274972Y-153199999D03*
D13*
X160774972Y-153199999D03*
D15*
X166274972Y-159099999D03*
X171274972Y-156999999D03*
%TD*%
D14*
%TO.C,K_24*%
X94837472Y-96049999D03*
D13*
X89337472Y-96049999D03*
X100337472Y-96049999D03*
D15*
X94837472Y-101949999D03*
X99837472Y-99849999D03*
%TD*%
D13*
%TO.C,K_64*%
X114624972Y-153199999D03*
D14*
X109124972Y-153199999D03*
D13*
X103624972Y-153199999D03*
D15*
X109124972Y-159099999D03*
X114124972Y-156999999D03*
%TD*%
D13*
%TO.C,K_52*%
X86049972Y-134149999D03*
X75049972Y-134149999D03*
D14*
X80549972Y-134149999D03*
D15*
X80549972Y-140049999D03*
X85549972Y-137949999D03*
%TD*%
D14*
%TO.C,K_50*%
X118649972Y-134149999D03*
D13*
X113149972Y-134149999D03*
X124149972Y-134149999D03*
D15*
X118649972Y-140049999D03*
X123649972Y-137949999D03*
%TD*%
D13*
%TO.C,K_60*%
X190824972Y-153199999D03*
D14*
X185324972Y-153199999D03*
D13*
X179824972Y-153199999D03*
D15*
X185324972Y-159099999D03*
X190324972Y-156999999D03*
%TD*%
D13*
%TO.C,K_11*%
X51237472Y-72237499D03*
X62237472Y-72237499D03*
D14*
X56737472Y-72237499D03*
D15*
X56737472Y-78137499D03*
X61737472Y-76037499D03*
%TD*%
D19*
%TO.C,J1*%
X225012472Y-47237499D03*
D20*
X237712472Y-47237499D03*
D19*
X250412472Y-47237499D03*
%TD*%
D13*
%TO.C,K_26*%
X41712472Y-96049999D03*
D18*
X41992472Y-91849999D03*
D13*
X52712472Y-96049999D03*
D14*
X47212472Y-96049999D03*
D15*
X47212472Y-101949999D03*
X52212472Y-99849999D03*
%TD*%
D14*
%TO.C,K_66*%
X71024972Y-153199999D03*
D13*
X76524972Y-153199999D03*
X65524972Y-153199999D03*
D15*
X71024972Y-159099999D03*
X76024972Y-156999999D03*
%TD*%
D14*
%TO.C,K_30*%
X237712472Y-115099999D03*
D13*
X232212472Y-115099999D03*
X243212472Y-115099999D03*
D15*
X237712472Y-120999999D03*
X242712472Y-118899999D03*
%TD*%
D13*
%TO.C,K_42*%
X265549972Y-134149999D03*
D14*
X271049972Y-134149999D03*
D13*
X276549972Y-134149999D03*
D15*
X271049972Y-140049999D03*
X276049972Y-137949999D03*
%TD*%
D14*
%TO.C,K_67*%
X51974972Y-153199999D03*
D13*
X46474972Y-153199999D03*
X57474972Y-153199999D03*
D15*
X51974972Y-159099999D03*
X56974972Y-156999999D03*
%TD*%
D13*
%TO.C,K_19*%
X195587472Y-96049999D03*
D14*
X190087472Y-96049999D03*
D13*
X184587472Y-96049999D03*
D15*
X190087472Y-101949999D03*
X195087472Y-99849999D03*
%TD*%
D14*
%TO.C,K_20*%
X171037472Y-96049999D03*
D13*
X165537472Y-96049999D03*
X176537472Y-96049999D03*
D15*
X171037472Y-101949999D03*
X176037472Y-99849999D03*
%TD*%
D14*
%TO.C,K_69*%
X280574972Y-172249999D03*
D13*
X286074972Y-172249999D03*
X275074972Y-172249999D03*
D15*
X280574972Y-178149999D03*
X285574972Y-176049999D03*
%TD*%
D13*
%TO.C,K_6*%
X156012472Y-72237499D03*
D14*
X161512472Y-72237499D03*
D13*
X167012472Y-72237499D03*
D15*
X161512472Y-78137499D03*
X166512472Y-76037499D03*
%TD*%
D13*
%TO.C,K_71*%
X236974972Y-172249999D03*
D14*
X242474972Y-172249999D03*
D13*
X247974972Y-172249999D03*
D15*
X242474972Y-178149999D03*
X247474972Y-176049999D03*
%TD*%
D14*
%TO.C,K_58*%
X223424972Y-153199999D03*
D13*
X217924972Y-153199999D03*
X228924972Y-153199999D03*
D15*
X223424972Y-159099999D03*
X228424972Y-156999999D03*
%TD*%
D14*
%TO.C,K_16*%
X247237472Y-96049999D03*
D13*
X241737472Y-96049999D03*
X252737472Y-96049999D03*
D15*
X247237472Y-101949999D03*
X252237472Y-99849999D03*
%TD*%
D13*
%TO.C,K_12*%
X43187472Y-72237499D03*
D14*
X37687472Y-72237499D03*
D13*
X32187472Y-72237499D03*
D15*
X37687472Y-78137499D03*
X42687472Y-76037499D03*
%TD*%
D14*
%TO.C,K_27*%
X299624972Y-115099999D03*
D13*
X305124972Y-115099999D03*
X294124972Y-115099999D03*
D15*
X299624972Y-120999999D03*
X304624972Y-118899999D03*
%TD*%
D14*
%TO.C,K_23*%
X113887472Y-96049999D03*
D13*
X108387472Y-96049999D03*
X119387472Y-96049999D03*
D15*
X113887472Y-101949999D03*
X118887472Y-99849999D03*
%TD*%
D13*
%TO.C,K_22*%
X138437472Y-96049999D03*
D14*
X132937472Y-96049999D03*
D13*
X127437472Y-96049999D03*
D15*
X132937472Y-101949999D03*
X137937472Y-99849999D03*
%TD*%
D13*
%TO.C,K_57*%
X247974972Y-153199999D03*
X236974972Y-153199999D03*
D14*
X242474972Y-153199999D03*
D15*
X242474972Y-159099999D03*
X247474972Y-156999999D03*
%TD*%
D13*
%TO.C,K_73*%
X179824472Y-172249999D03*
D14*
X185324472Y-172249999D03*
D13*
X190824472Y-172249999D03*
D15*
X185324472Y-178149999D03*
X190324472Y-176049999D03*
%TD*%
D14*
%TO.C,K_36*%
X123412472Y-115099999D03*
D13*
X117912472Y-115099999D03*
X128912472Y-115099999D03*
D15*
X123412472Y-120999999D03*
X128412472Y-118899999D03*
%TD*%
D18*
%TO.C,K_72*%
X208679472Y-168049999D03*
D14*
X213899472Y-172249999D03*
D13*
X219399472Y-172249999D03*
X208399472Y-172249999D03*
D15*
X213899472Y-178149999D03*
X218899472Y-176049999D03*
%TD*%
D13*
%TO.C,K_8*%
X117912472Y-72237499D03*
D14*
X123412472Y-72237499D03*
D13*
X128912472Y-72237499D03*
D15*
X123412472Y-78137499D03*
X128412472Y-76037499D03*
%TD*%
D14*
%TO.C,K_14*%
X285337472Y-96049999D03*
D13*
X279837472Y-96049999D03*
X290837472Y-96049999D03*
D15*
X285337472Y-101949999D03*
X290337472Y-99849999D03*
%TD*%
D13*
%TO.C,K_59*%
X198874972Y-153199999D03*
X209874972Y-153199999D03*
D14*
X204374972Y-153199999D03*
D15*
X204374972Y-159099999D03*
X209374972Y-156999999D03*
%TD*%
D13*
%TO.C,K_63*%
X133674972Y-153199999D03*
D14*
X128174972Y-153199999D03*
D13*
X122674972Y-153199999D03*
D15*
X128174972Y-159099999D03*
X133174972Y-156999999D03*
%TD*%
D13*
%TO.C,K_78*%
X46474972Y-172249999D03*
D14*
X51974972Y-172249999D03*
D13*
X57474972Y-172249999D03*
D15*
X51974972Y-178149999D03*
X56974972Y-176049999D03*
%TD*%
D14*
%TO.C,K_62*%
X147224972Y-153199999D03*
D13*
X141724972Y-153199999D03*
X152724972Y-153199999D03*
D15*
X147224972Y-159099999D03*
X152224972Y-156999999D03*
%TD*%
D13*
%TO.C,K_5*%
X175062472Y-72237499D03*
D14*
X180562472Y-72237499D03*
D13*
X186062472Y-72237499D03*
D15*
X180562472Y-78137499D03*
X185562472Y-76037499D03*
%TD*%
D14*
%TO.C,K_55*%
X280574972Y-153199999D03*
D13*
X286074972Y-153199999D03*
X275074972Y-153199999D03*
D15*
X280574972Y-159099999D03*
X285574972Y-156999999D03*
%TD*%
D18*
%TO.C,K_74*%
X151529972Y-168049999D03*
D13*
X162249972Y-172249999D03*
D14*
X156749972Y-172249999D03*
D13*
X151249972Y-172249999D03*
D15*
X156749972Y-178149999D03*
X161749972Y-176049999D03*
%TD*%
D14*
%TO.C,K_33*%
X180562472Y-115099999D03*
D13*
X186062472Y-115099999D03*
X175062472Y-115099999D03*
D15*
X180562472Y-120999999D03*
X185562472Y-118899999D03*
%TD*%
D14*
%TO.C,K_76*%
X99599972Y-172249999D03*
D13*
X94099972Y-172249999D03*
X105099972Y-172249999D03*
D15*
X99599972Y-178149999D03*
X104599972Y-176049999D03*
%TD*%
D13*
%TO.C,K_46*%
X189349972Y-134149999D03*
X200349972Y-134149999D03*
D14*
X194849972Y-134149999D03*
D15*
X194849972Y-140049999D03*
X199849972Y-137949999D03*
%TD*%
D13*
%TO.C,K_43*%
X246499972Y-134149999D03*
X257499972Y-134149999D03*
D14*
X251999972Y-134149999D03*
D15*
X251999972Y-140049999D03*
X256999972Y-137949999D03*
%TD*%
M02*
